# xmcd
#
# Track frame offsets: 
#        150
#        8885
#        17638
#        27035
#        36232
#        43070
#        52420
#        61449
#        69522
#        80403
#        87193
#        94045
#        110195
#        123879
#        139772
#        146900
#        154267
#        160342
#        166338
#        178048
#        186038
#
# Disc length: 2648 seconds
#
# Revision: 0
# Processed by: cddbd v1.5.2PL0 Copyright (c) Steve Scherf et al.
# Submitted via: ExactAudioCopy v1.3
#
DISCID=250a5615
DTITLE=Jimmy Wakely - Jimmy Wakely_Wake Up Live (The Dave Cash Collect
DTITLE=ion)
DYEAR=2011
DGENRE=Western Swing
TTITLE0=Bill Balley
TTITLE1=Blue Shadows On The Trail (Live)
TTITLE2=Blue Skies (Live)
TTITLE3=Boggs Boogie (Live)
TTITLE4=By the Waters of the Minnetonka (Live)
TTITLE5=Empty Saddles (Live)
TTITLE6=Follow Through (Live)
TTITLE7=Freight Train Blues (Live)
TTITLE8=I'm Casting My Lasso Toward the Sky (Live)
TTITLE9=I'm Lokking Over a Four Leaf Clover (Live)
TTITLE10=In the Garden (Live)
TTITLE11=It Is No Secret (Live)
TTITLE12=Medley_
TTITLE13=Nine Pound Hammer
TTITLE14=Texas Playboy Rag
TTITLE15=The Winter Song
TTITLE16=Too Bad, Little Girl (Live)
TTITLE17=Wait for the Light to Shine (Live)
TTITLE18=We'll Rest at the End of the Trail V2 (Live)
TTITLE19=When the Bloom Is On the Sage (Live)
TTITLE20=Where the Mountains Meet the Sky (Live)
EXTD=
EXTT0=
EXTT1=
EXTT2=
EXTT3=
EXTT4=
EXTT5=
EXTT6=
EXTT7=
EXTT8=
EXTT9=
EXTT10=
EXTT11=
EXTT12=
EXTT13=
EXTT14=
EXTT15=
EXTT16=
EXTT17=
EXTT18=
EXTT19=
EXTT20=
PLAYORDER=
